<svg preserveAspectRatio="none" width="100%" height="100%" overflow="visible" style="display: block;" viewBox="0 0 12 12" fill="none" xmlns="http://www.w3.org/2000/svg">
<g id="Icon">
<path id="Vector" d="M9.5 3.5L9.0665 9.571C9.04854 9.82329 8.93565 10.0594 8.75056 10.2318C8.56547 10.4042 8.32193 10.5 8.069 10.5H3.931C3.67807 10.5 3.43453 10.4042 3.24944 10.2318C3.06435 10.0594 2.95146 9.82329 2.9335 9.571L2.5 3.5M5 5.5V8.5M7 5.5V8.5M7.5 3.5V2C7.5 1.86739 7.44732 1.74021 7.35355 1.64645C7.25979 1.55268 7.13261 1.5 7 1.5H5C4.86739 1.5 4.74021 1.55268 4.64645 1.64645C4.55268 1.74021 4.5 1.86739 4.5 2V3.5M2 3.5H10" stroke="var(--stroke-0, #D1D5DB)" stroke-linecap="round" stroke-linejoin="round"/>
</g>
</svg>
