<svg preserveAspectRatio="none" width="100%" height="100%" overflow="visible" style="display: block;" viewBox="0 0 12 12" fill="none" xmlns="http://www.w3.org/2000/svg">
<g id="Icon">
<path id="Vector" d="M7.376 5.584L5.7775 4.518C5.70213 4.46771 5.61451 4.43885 5.52401 4.4345C5.43351 4.43015 5.34352 4.45047 5.26368 4.4933C5.18383 4.53612 5.11712 4.59984 5.07068 4.67764C5.02423 4.75544 4.99981 4.84439 5 4.935V7.0665C4.99999 7.15702 5.02455 7.24585 5.07106 7.3235C5.11758 7.40116 5.1843 7.46473 5.26412 7.50744C5.34393 7.55014 5.43384 7.57038 5.52426 7.56599C5.61467 7.56159 5.7022 7.53274 5.7775 7.4825L7.376 6.4165C7.44448 6.37084 7.50063 6.30898 7.53946 6.23641C7.57829 6.16384 7.59861 6.08281 7.59861 6.0005C7.59861 5.91819 7.57829 5.83716 7.53946 5.76459C7.50063 5.69202 7.44448 5.62966 7.376 5.584Z" stroke="var(--stroke-0, #D1D5DB)" stroke-linecap="round" stroke-linejoin="round"/>
</g>
</svg>
